<svg xmlns="http://www.w3.org/2000/svg" viewBox="0 0 448 512">
  <path fill="#F7DF1E" d="M0 32v448h448V32H0zm243.8 349.4c0 43.6-25.6 63.5-62.9 63.5-33.7 0-53.2-17.4-63.2-38.5l34.3-20.7c6.6 11.7 12.6 21.6 27.1 21.6 13.8 0 22.6-5.4 22.6-22.6 0-9.8-2.7-22.6-2.7-22.6h-90.6c0 0 2.7 42.2 2.7 90.5 0 47.7-11.4 79.5-74.6 79.5-47.4 0-79.1-31.1-79.1-77.5 0-52.6 39.4-102.2 102.2-102.2h27.1v-26.6c0-24.2-5.4-41.9-35.3-41.9-24.2 0-41.9 16.4-41.9 43.7 0 19.5 3.4 33.3 3.4 33.3s-35.3 6.6-35.3 40.2c0 37.5 30.9 102.2 91.8 102.2 58.1 0 87.8-49.7 87.8-91.8 0-19.5-2.7-33.8-2.7-33.8h31.1c0 0 2.7 19.5 2.7 39.8z"/>
</svg> 